<?xml version="1.0" encoding="UTF-8" standalone="no"?>
<!-- Created with Inkscape (http://www.inkscape.org/) -->

<svg
   xmlns:dc="http://purl.org/dc/elements/1.1/"
   xmlns:cc="http://creativecommons.org/ns#"
   xmlns:rdf="http://www.w3.org/1999/02/22-rdf-syntax-ns#"
   xmlns:svg="http://www.w3.org/2000/svg"
   xmlns="http://www.w3.org/2000/svg"
   xmlns:sodipodi="http://sodipodi.sourceforge.net/DTD/sodipodi-0.dtd"
   xmlns:inkscape="http://www.inkscape.org/namespaces/inkscape"
   width="193.85266mm"
   height="92.994926mm"
   viewBox="0 0 193.85266 92.994926"
   version="1.1"
   id="svg985"
   inkscape:version="0.92.5 (2060ec1f9f, 2020-04-08)"
   sodipodi:docname="iteme_logo.svg">
  <defs
     id="defs979" />
  <sodipodi:namedview
     id="base"
     pagecolor="#ffffff"
     bordercolor="#666666"
     borderopacity="1.0"
     inkscape:pageopacity="0.0"
     inkscape:pageshadow="2"
     inkscape:zoom="1.1730469"
     inkscape:cx="288.94646"
     inkscape:cy="100.64019"
     inkscape:document-units="mm"
     inkscape:current-layer="layer1"
     showgrid="false"
     fit-margin-top="0"
     fit-margin-left="0"
     fit-margin-right="0"
     fit-margin-bottom="0"
     inkscape:window-width="1920"
     inkscape:window-height="1016"
     inkscape:window-x="0"
     inkscape:window-y="27"
     inkscape:window-maximized="1" />
  <metadata
     id="metadata982">
    <rdf:RDF>
      <cc:Work
         rdf:about="">
        <dc:format>image/svg+xml</dc:format>
        <dc:type
           rdf:resource="http://purl.org/dc/dcmitype/StillImage" />
        <dc:title></dc:title>
      </cc:Work>
    </rdf:RDF>
  </metadata>
  <g
     inkscape:label="Ebene 1"
     inkscape:groupmode="layer"
     id="layer1"
     transform="translate(17.7575,-82.466127)">
    <g
       transform="translate(-622.2422,-114.18947)"
       id="g168">
      <g
         aria-label="iTEME"
         id="g1101"
         style="font-style:normal;font-weight:normal;font-size:52.69100189px;line-height:1.25;font-family:sans-serif;fill:#a02c5a;fill-opacity:1;stroke:none;stroke-width:0.27443099"
         transform="translate(534.33122,-60.554073)">
        <path
           d="m 108.38376,269.22322 q -1.52804,0 -3.00339,-0.79036 -1.42265,-0.84306 -2.37109,-2.26572 -0.89575,-1.42265 -0.89575,-3.05607 0,-2.52917 1.89688,-4.21528 1.94956,-1.68612 4.63681,-1.68612 2.52916,0 4.0572,1.52804 1.58073,1.52804 1.58073,4.05721 0,2.79262 -1.68611,4.63681 -1.68611,1.79149 -4.21528,1.79149 z m -5.74332,2.00226 h 11.01242 v 27.92623 H 103.4835 Z"
           style="font-style:normal;font-variant:normal;font-weight:normal;font-stretch:normal;font-size:52.69100189px;font-family:'Riffic Free';-inkscape-font-specification:'Riffic Free';fill:#a02c5a;fill-opacity:1;stroke-width:0.27443099"
           id="path1091"
           inkscape:connector-curvature="0" />
        <path
           d="m 136.90194,269.27591 0.10538,29.92849 -10.43281,0.47422 -0.10539,-30.13925 -10.95972,0.26345 -0.73768,-10.5382 33.08995,-0.79036 0.84306,10.5382 z"
           style="font-style:normal;font-variant:normal;font-weight:normal;font-stretch:normal;font-size:52.69100189px;font-family:'Riffic Free';-inkscape-font-specification:'Riffic Free';fill:#a02c5a;fill-opacity:1;stroke-width:0.27443099"
           id="path1093"
           inkscape:connector-curvature="0" />
        <path
           d="m 178.64392,288.13929 v 10.5382 l -27.82085,0.63229 -1.36997,-40.04516 27.82085,-0.89574 0.73767,10.5382 -17.80955,0.21076 0.21076,4.16259 14.80617,-0.31615 0.52691,10.5382 -14.70079,0.31615 0.26346,5.00564 z"
           style="font-style:normal;font-variant:normal;font-weight:normal;font-stretch:normal;font-size:52.69100189px;font-family:'Riffic Free';-inkscape-font-specification:'Riffic Free';fill:#a02c5a;fill-opacity:1;stroke-width:0.27443099"
           id="path1095"
           inkscape:connector-curvature="0" />
        <path
           d="m 214.00123,299.41517 -1.10651,-23.65826 -5.05834,23.65826 h -10.5382 l -5.8487,-22.13022 -0.26345,21.55061 -10.5382,0.0527 v -39.93978 l 7.5875,0.47422 8.06172,0.26345 5.9014,21.18178 4.00451,-21.49793 h 10.22206 6.27023 l 1.84418,39.67633 z"
           style="font-style:normal;font-variant:normal;font-weight:normal;font-stretch:normal;font-size:52.69100189px;font-family:'Riffic Free';-inkscape-font-specification:'Riffic Free';fill:#a02c5a;fill-opacity:1;stroke-width:0.27443099"
           id="path1097"
           inkscape:connector-curvature="0" />
        <path
           d="m 254.69597,288.13929 v 10.5382 l -27.82085,0.63229 -1.36996,-40.04516 27.82085,-0.89574 0.73767,10.5382 -17.80956,0.21076 0.21076,4.16259 14.80618,-0.31615 0.52691,10.5382 -14.70079,0.31615 0.26345,5.00564 z"
           style="font-style:normal;font-variant:normal;font-weight:normal;font-stretch:normal;font-size:52.69100189px;font-family:'Riffic Free';-inkscape-font-specification:'Riffic Free';fill:#a02c5a;fill-opacity:1;stroke-width:0.27443099"
           id="path1099"
           inkscape:connector-curvature="0" />
      </g>
      <text
         xml:space="preserve"
         style="font-style:normal;font-variant:normal;font-weight:bold;font-stretch:normal;font-size:11.78498554px;line-height:1.25;font-family:sans-serif;-inkscape-font-specification:'sans-serif Bold';letter-spacing:0px;word-spacing:0px;fill:#a02c5a;fill-opacity:1;stroke:none;stroke-width:0.29462463"
         x="636.76056"
         y="250.94997"
         id="text1105"><tspan
           sodipodi:role="line"
           id="tspan1103"
           x="636.76056"
           y="250.94997"
           style="font-style:normal;font-variant:normal;font-weight:bold;font-stretch:normal;font-family:sans-serif;-inkscape-font-specification:'sans-serif Bold';fill:#a02c5a;stroke-width:0.29462463">serivise zose hafi yawe</tspan></text>
      <path
         style="fill:#a02c5a;fill-opacity:1;stroke:none;stroke-width:5.60972023;stroke-miterlimit:4;stroke-dasharray:none;stroke-dashoffset:0;stroke-opacity:1"
         d="m 734.07542,260.04488 c -52.59759,-3.11644 -104.04802,8.63765 -129.59072,29.60564 33.23636,-18.86815 85.9785,-28.49462 138.95914,-25.36276 19.31353,1.17081 37.94882,4.00329 54.89352,8.34361 -18.42822,-6.79418 -40.67284,-11.15105 -64.26194,-12.58649 z"
         id="path1107"
         inkscape:connector-curvature="0"
         sodipodi:nodetypes="ccccc" />
    </g>
  </g>
</svg>
